<svg id="visual" viewBox="0 0 1920 1080" width="1920" height="1080" xmlns="http://www.w3.org/2000/svg" xmlns:xlink="http://www.w3.org/1999/xlink" version="1.1"><rect x="0" y="0" width="1920" height="1080" fill="#292a2d"></rect><path d="M709 0L678.5 25.7C648 51.3 587 102.7 575.5 154.2C564 205.7 602 257.3 607.3 308.8C612.7 360.3 585.3 411.7 597.2 463C609 514.3 660 565.7 666.2 617C672.3 668.3 633.7 719.7 615.2 771.2C596.7 822.7 598.3 874.3 611.8 925.8C625.3 977.3 650.7 1028.7 663.3 1054.3L676 1080L0 1080L0 1054.3C0 1028.7 0 977.3 0 925.8C0 874.3 0 822.7 0 771.2C0 719.7 0 668.3 0 617C0 565.7 0 514.3 0 463C0 411.7 0 360.3 0 308.8C0 257.3 0 205.7 0 154.2C0 102.7 0 51.3 0 25.7L0 0Z" fill="#292a2d"></path><path d="M496 0L499 25.7C502 51.3 508 102.7 493 154.2C478 205.7 442 257.3 446.7 308.8C451.3 360.3 496.7 411.7 494 463C491.3 514.3 440.7 565.7 460.2 617C479.7 668.3 569.3 719.7 605.2 771.2C641 822.7 623 874.3 621.2 925.8C619.3 977.3 633.7 1028.7 640.8 1054.3L648 1080L0 1080L0 1054.3C0 1028.7 0 977.3 0 925.8C0 874.3 0 822.7 0 771.2C0 719.7 0 668.3 0 617C0 565.7 0 514.3 0 463C0 411.7 0 360.3 0 308.8C0 257.3 0 205.7 0 154.2C0 102.7 0 51.3 0 25.7L0 0Z" fill="#292c34"></path><path d="M472 0L467.3 25.7C462.7 51.3 453.3 102.7 447 154.2C440.7 205.7 437.3 257.3 437.8 308.8C438.3 360.3 442.7 411.7 425.5 463C408.3 514.3 369.7 565.7 366.3 617C363 668.3 395 719.7 391 771.2C387 822.7 347 874.3 337 925.8C327 977.3 347 1028.7 357 1054.3L367 1080L0 1080L0 1054.3C0 1028.7 0 977.3 0 925.8C0 874.3 0 822.7 0 771.2C0 719.7 0 668.3 0 617C0 565.7 0 514.3 0 463C0 411.7 0 360.3 0 308.8C0 257.3 0 205.7 0 154.2C0 102.7 0 51.3 0 25.7L0 0Z" fill="#282f3c"></path><path d="M332 0L309.3 25.7C286.7 51.3 241.3 102.7 225.5 154.2C209.7 205.7 223.3 257.3 238 308.8C252.7 360.3 268.3 411.7 271.2 463C274 514.3 264 565.7 277.2 617C290.3 668.3 326.7 719.7 332.5 771.2C338.3 822.7 313.7 874.3 294.8 925.8C276 977.3 263 1028.7 256.5 1054.3L250 1080L0 1080L0 1054.3C0 1028.7 0 977.3 0 925.8C0 874.3 0 822.7 0 771.2C0 719.7 0 668.3 0 617C0 565.7 0 514.3 0 463C0 411.7 0 360.3 0 308.8C0 257.3 0 205.7 0 154.2C0 102.7 0 51.3 0 25.7L0 0Z" fill="#263143"></path><path d="M133 0L141.8 25.7C150.7 51.3 168.3 102.7 165.5 154.2C162.7 205.7 139.3 257.3 128.8 308.8C118.3 360.3 120.7 411.7 135.8 463C151 514.3 179 565.7 191.3 617C203.7 668.3 200.3 719.7 195.7 771.2C191 822.7 185 874.3 178.8 925.8C172.7 977.3 166.3 1028.7 163.2 1054.3L160 1080L0 1080L0 1054.3C0 1028.7 0 977.3 0 925.8C0 874.3 0 822.7 0 771.2C0 719.7 0 668.3 0 617C0 565.7 0 514.3 0 463C0 411.7 0 360.3 0 308.8C0 257.3 0 205.7 0 154.2C0 102.7 0 51.3 0 25.7L0 0Z" fill="#24344b"></path></svg>